<svg xmlns="http://www.w3.org/2000/svg" xmlns:xlink="http://www.w3.org/1999/xlink" width="44" height="44" viewBox="0 0 44 44">
    <defs>
        <path id="a" d="M1.19 2.282L3.56 0l2.939 2.282 2.123 1.466L8.09 7.67H2.252L0 3.748z"/>
        <path id="c" d="M10.621 8.17c.13.205.258.419.382.635a.174.174 0 1 1-.302.174 16.096 16.096 0 0 0-.375-.622.174.174 0 1 1 .295-.187zm-.788-1.13c.146.189.293.39.438.6a.175.175 0 0 1-.287.199 12.946 12.946 0 0 0-.427-.585.175.175 0 0 1 .276-.213zm-.924-1.034c.17.163.345.345.517.542a.174.174 0 0 1-.092.284.173.173 0 0 1-.17-.055 8.03 8.03 0 0 0-.496-.518.174.174 0 0 1 .24-.253zm-1.36-3.375c.398-.044.808.193 1.09.452.304.279.435.692.453 1.092.017.384-.185.823-.453 1.091-.242.242-.516.352-.824.41l-.01.007.142-.019a1.427 1.427 0 0 0-.176.038l-.04.024c.063.126.133.243.21.357.28.338.594.649.94.918.115.105.219.22.3.359l.156.368c.128.397.034.831-.156 1.19-.176.333-.564.61-.922.709-.346.095-.886.067-1.189-.156a8.281 8.281 0 0 1-.963-.81c-.422-.422-.83-.909-1.086-1.451-.368-.782-.536-1.66-.223-2.497.268-.718.747-1.365 1.452-1.709a3.559 3.559 0 0 1 1.298-.373zM.87.243c.328-.212.82-.257 1.19-.156.333.092.773.379.922.71.105.234.203.473.293.713.254.678.443 1.381.579 2.091.23 1.203.344 2.436.246 3.659-.034.427-.162.776-.452 1.091-.278.303-.692.434-1.09.452-.385.017-.824-.184-1.092-.452-.258-.258-.482-.716-.452-1.091.062-.775.037-1.552-.052-2.324C.813 3.949.573 2.96.186 2.04l.055.13a1.534 1.534 0 0 1-.134-.596l.055-.41c.09-.393.38-.71.71-.922z"/>
        <path id="e" d="M24.456 23.973c.004-.243-1.2-.458-2.688-.48-1.295-.02-2.377.112-2.64.306-.79.047-1.343.17-1.345.325-.003.156.562.298 1.37.368-.062.03-.098.061-.098.095-.003.172.845.323 1.894.34 1.049.015 1.901-.11 1.904-.282.001-.108-.338-.209-.853-.272h.002c1.373 0 2.45-.171 2.454-.4M8.175 12.437c-.14.46-.445.837-.84 1.106-.75.51-1.701.681-2.588.752-.576.046-1.16.053-1.736.004a.107.107 0 0 1-.086-.062 10.67 10.67 0 0 1-.507-1.475c-.339-1.257-.628-3.139.62-4.013.599-.42 1.38-.542 2.018-.137.55.349.831.985.809 1.62.589-.221 1.272-.162 1.778.236.608.478.73 1.255.532 1.969m14.271 3.166c-.099-.357-.376-.745-.709-.922-.358-.19-.792-.284-1.189-.155l-.369.155c-.134.08-.248.18-.351.292-.406.517-.883.97-1.396 1.378a10.08 10.08 0 0 1-.958.632 14.588 14.588 0 0 1-2.886-.823c-.77-.34-1.505-.754-2.192-1.24a7.621 7.621 0 0 0 2.107-3.866c.254-1.315.098-2.49-.387-3.907-.023-.068.053-.123.107-.077l.071.063 1.271 1.103a.3.3 0 0 0 .424-.03l1.044-1.203c.401-.461.351-1.16-.11-1.56l-.779-.676a1.106 1.106 0 0 0-1.56.11l-.841.969-.039.044a.17.17 0 0 1-.264-.013 3.999 3.999 0 0 0-1.303-1.122.17.17 0 0 1-.052-.26l.348-.402.537-.618c.4-.46.35-1.16-.11-1.56l-.78-.676a1.106 1.106 0 0 0-1.56.11l-.858.99-.186.213a.3.3 0 0 0 .03.424l1.43 1.242c.051.043.014.127-.053.117a3.84 3.84 0 0 0-.916-.029c-.805.071-1.498.43-2.192.807C7.037 5.514.44 9.092.327 9.169c-.43.298-.329.813-.279 1.262.051.458.117.92.242 1.365.529 1.868 1.834 3.478 3.528 4.412a7.373 7.373 0 0 0 3.822.9c.282-.023.562-.065.838-.119.234 1.875.306 3.786.154 5.667-.03.375.194.833.452 1.091.268.268.707.47 1.091.452.399-.018.813-.148 1.091-.452.29-.315.417-.663.452-1.09a27.186 27.186 0 0 0-.032-4.52c.047.027.091.06.138.086.434.248.886.464 1.344.664-.298.24-.565.518-.762.846-.607 1.013-.293 2.321.356 3.233a7.744 7.744 0 0 0 1.755 1.764c.303.223.843.251 1.19.156.357-.099.745-.376.922-.71.189-.357.284-.791.155-1.188l-.155-.37a1.552 1.552 0 0 0-.301-.357 6.071 6.071 0 0 1-.94-.919c-.039-.057-.079-.114-.114-.173.228-.142.47-.263.715-.374.7-.287 1.426-.526 2.161-.705a1.35 1.35 0 0 0 .47-.226c.364-.18.715-.394 1.05-.62.468-.317.92-.663 1.344-1.037.482-.427.885-.905 1.277-1.414.227-.295.249-.851.156-1.19"/>
        <path id="g" d="M27 .663V0C23.026 7.08 14.6 13.454 13.213 14.473c-.125-.063-.28-.066-.44.047-1.361.962-2.944 1.777-4.706 2.423a.505.505 0 0 0-.331.396.54.54 0 0 0 .168.502.393.393 0 0 0 .257.093c.056 0 .113-.01.172-.032 1.892-.694 3.554-1.543 4.94-2.523a.524.524 0 0 0 .168-.662C14.899 13.643 22.919 7.547 27 .663"/>
    </defs>
    <g fill="none" fill-rule="evenodd" transform="translate(2 2)">
        <circle cx="20" cy="20" r="20" stroke="#FFF" stroke-width="4"/>
        <path fill="#008177" d="M20 40C8.954 40 0 31.046 0 20S8.954 0 20 0s20 8.954 20 20-8.954 20-20 20z"/>
        <g transform="translate(8 7)">
            <g transform="translate(.5 7.5)">
                <mask id="b" fill="#fff">
                    <use xlink:href="#a"/>
                </mask>
                <use fill="#FFF" fill-rule="nonzero" xlink:href="#a"/>
                <g fill="#008177" mask="url(#b)">
                    <path d="M-2-10h28v28H-2z"/>
                </g>
            </g>
            <g transform="translate(9.5 14.5)">
                <mask id="d" fill="#fff">
                    <use xlink:href="#c"/>
                </mask>
                <use fill="#C4314D" fill-opacity="0" xlink:href="#c"/>
                <g fill="#FFF" fill-opacity=".72" mask="url(#d)">
                    <path d="M-11-17h28v28h-28z"/>
                </g>
            </g>
            <mask id="f" fill="#fff">
                <use xlink:href="#e"/>
            </mask>
            <use fill="#EE395D" fill-opacity="0" xlink:href="#e"/>
            <g fill="#FFF" mask="url(#f)">
                <path d="M-1-2h28v28H-1z"/>
            </g>
            <mask id="h" fill="#fff">
                <use xlink:href="#g"/>
            </mask>
            <use fill="#3097D3" fill-opacity="0" xlink:href="#g"/>
            <g fill="#B9DCD9" mask="url(#h)">
                <path d="M-1-2h28v28H-1z"/>
            </g>
        </g>
    </g>
</svg>
